<svg id="Layer_1" data-name="Layer 1" xmlns="http://www.w3.org/2000/svg" viewBox="0 0 371.49 38.99"><defs><style>.cls-1{fill:#535557;}.cls-2{fill:#78a22f;}</style></defs><title>4color</title><path class="cls-1" d="M71,36.88,60.18,56.39H20.52a3.59,3.59,0,0,1-3.59-3.59V21a3.59,3.59,0,0,1,3.59-3.59h39.7L71,36.88ZM37.1,45.65V28.23H34.2V41.06h-.05l-8-12.84H23V45.65h2.91V32.84H26l7.93,12.82Zm6.06,0V28.23H40.11V45.65ZM60.25,28.23H57.2v6.93H49.27V28.23H46.21V45.65h3.05V37.8H57.2v7.86h3.05V28.23Z" transform="translate(-16.93 -17.4)"/><path class="cls-1" d="M62.89,56.39l10.8-19.51L62.93,17.4h2.69a5,5,0,0,1,4,2.35l9.47,17.13L69.57,54a5,5,0,0,1-4,2.35Z" transform="translate(-16.93 -17.4)"/><path class="cls-2" d="M62.89,56.39l10.8-19.51L62.92,17.4h2.7a5,5,0,0,1,4,2.35l9.47,17.13L69.57,54a5,5,0,0,1-4,2.35Z" transform="translate(-16.93 -17.4)"/><path class="cls-1" d="M85.81,27.43h1.75l4.32,7h0v-7h1.58V36.9H91.74l-4.31-7h0v7H85.81Z" transform="translate(-16.93 -17.4)"/><path class="cls-1" d="M100.71,35.37c0,.37.08.52.36.52a2.1,2.1,0,0,0,.37,0v1a3.82,3.82,0,0,1-1,.17c-.61,0-1-.21-1.17-.83a3.52,3.52,0,0,1-2.37.83,2.08,2.08,0,0,1-2.35-2c0-1.71,1.37-2,2.64-2.14,1.09-.2,2.06-.08,2.06-1S98.49,31,97.88,31c-.85,0-1.45.34-1.51,1.09H94.85c.11-1.76,1.6-2.28,3.12-2.28,1.34,0,2.74.54,2.74,2ZM99.2,33.46a5.4,5.4,0,0,1-1.86.41c-.65.11-1.23.34-1.23,1.14s.86.88,1.39.88,1.7-.34,1.7-1.3Z" transform="translate(-16.93 -17.4)"/><path class="cls-1" d="M101.39,30h1.14V28H104V30h1.37v1.13H104v3.66c0,.62.05.94.73.94a2.56,2.56,0,0,0,.64-.05v1.17c-.33,0-.65.08-1,.08-1.58,0-1.87-.61-1.9-1.75v-4h-1.14Z" transform="translate(-16.93 -17.4)"/><path class="cls-1" d="M106.4,27.43h1.51v1.43H106.4Zm0,2.61h1.51V36.9H106.4Z" transform="translate(-16.93 -17.4)"/><path class="cls-1" d="M108.84,33.46a3.46,3.46,0,1,1,6.92,0,3.46,3.46,0,1,1-6.92,0Zm5.41,0c0-1.18-.6-2.41-1.95-2.41s-1.95,1.23-1.95,2.41.6,2.43,1.95,2.43S114.25,34.66,114.25,33.46Z" transform="translate(-16.93 -17.4)"/><path class="cls-1" d="M116.62,30H118v1l0,0a2.46,2.46,0,0,1,2.13-1.22,2.17,2.17,0,0,1,2.43,2.33V36.9h-1.51V32.59c0-1.07-.45-1.54-1.34-1.54a1.67,1.67,0,0,0-1.66,1.8v4h-1.51Z" transform="translate(-16.93 -17.4)"/><path class="cls-1" d="M129.84,35.37c0,.37.08.52.36.52a2.1,2.1,0,0,0,.37,0v1a3.82,3.82,0,0,1-1,.17c-.61,0-1-.21-1.17-.83a3.52,3.52,0,0,1-2.37.83,2.08,2.08,0,0,1-2.35-2c0-1.71,1.37-2,2.64-2.14,1.09-.2,2.05-.08,2.05-1S127.61,31,127,31c-.85,0-1.45.34-1.51,1.09H124c.11-1.76,1.6-2.28,3.12-2.28,1.34,0,2.75.54,2.75,2Zm-1.51-1.91a5.4,5.4,0,0,1-1.86.41c-.65.11-1.23.34-1.23,1.14s.86.88,1.39.88,1.7-.34,1.7-1.3Z" transform="translate(-16.93 -17.4)"/><path class="cls-1" d="M131.37,27.43h1.51V36.9h-1.51Z" transform="translate(-16.93 -17.4)"/><path class="cls-1" d="M138.16,27.43h1.66V36.9h-1.66Z" transform="translate(-16.93 -17.4)"/><path class="cls-1" d="M141.43,30h1.43v1l0,0A2.46,2.46,0,0,1,145,29.86a2.17,2.17,0,0,1,2.43,2.33V36.9h-1.51V32.59c0-1.07-.45-1.54-1.34-1.54a1.67,1.67,0,0,0-1.66,1.8v4h-1.51Z" transform="translate(-16.93 -17.4)"/><path class="cls-1" d="M150,34.7c.08.88.74,1.19,1.55,1.19.57,0,1.56-.12,1.53-.9s-1.14-.89-2.24-1.14-2.2-.64-2.2-2,1.62-2,2.86-2c1.41,0,2.68.58,2.86,2.11h-1.58c-.13-.72-.73-.92-1.39-.92-.44,0-1.25.11-1.25.7s1.11.85,2.23,1.1,2.21.65,2.21,2c0,1.63-1.64,2.23-3.06,2.23-1.72,0-3-.77-3-2.39Z" transform="translate(-16.93 -17.4)"/><path class="cls-1" d="M154.9,30H156V28h1.51V30h1.37v1.13h-1.37v3.66c0,.62.05.94.73.94a2.57,2.57,0,0,0,.64-.05v1.17c-.33,0-.65.08-1,.08-1.58,0-1.87-.61-1.9-1.75v-4H154.9Z" transform="translate(-16.93 -17.4)"/><path class="cls-1" d="M159.91,27.43h1.51v1.43h-1.51Zm0,2.61h1.51V36.9h-1.51Z" transform="translate(-16.93 -17.4)"/><path class="cls-1" d="M162,30h1.14V28h1.51V30h1.37v1.13h-1.37v3.66c0,.62.05.94.73.94a2.57,2.57,0,0,0,.64-.05v1.17c-.33,0-.65.08-1,.08-1.58,0-1.87-.61-1.9-1.75v-4H162Z" transform="translate(-16.93 -17.4)"/><path class="cls-1" d="M172.77,36.9h-1.49v-1h0a2.3,2.3,0,0,1-1.95,1.14c-1.79,0-2.56-.9-2.56-2.69V30h1.51v4.2c0,1.21.49,1.64,1.31,1.64,1.26,0,1.68-.81,1.68-1.87V30h1.51Z" transform="translate(-16.93 -17.4)"/><path class="cls-1" d="M173.47,30h1.14V28h1.51V30h1.37v1.13h-1.37v3.66c0,.62.05.94.73.94a2.57,2.57,0,0,0,.64-.05v1.17c-.33,0-.65.08-1,.08-1.58,0-1.87-.61-1.9-1.75v-4h-1.14Z" transform="translate(-16.93 -17.4)"/><path class="cls-1" d="M179.49,33.86a1.82,1.82,0,0,0,1.84,2A1.59,1.59,0,0,0,183,34.75h1.43a3,3,0,0,1-3.1,2.33c-2.15,0-3.35-1.5-3.35-3.61a3.32,3.32,0,1,1,6.55.38Zm3.53-1a1.76,1.76,0,1,0-3.53,0Z" transform="translate(-16.93 -17.4)"/><path class="cls-1" d="M188.78,33.46a3.46,3.46,0,1,1,6.92,0,3.46,3.46,0,1,1-6.92,0Zm5.41,0c0-1.18-.6-2.41-1.95-2.41s-1.95,1.23-1.95,2.41.6,2.43,1.95,2.43S194.19,34.66,194.19,33.46Z" transform="translate(-16.93 -17.4)"/><path class="cls-1" d="M195.88,30H197v-.57c0-1.75.92-2,1.9-2a4.24,4.24,0,0,1,1.06.09V28.7a2.57,2.57,0,0,0-.7-.08c-.41,0-.74.15-.74.72V30h1.29v1.13h-1.29V36.9H197V31.17h-1.13Z" transform="translate(-16.93 -17.4)"/><path class="cls-1" d="M204.37,27.43h6.82v1.43H206v2.48h4.77v1.35H206v2.77h5.25V36.9h-6.91Z" transform="translate(-16.93 -17.4)"/><path class="cls-1" d="M212.37,30h1.43v1l0,0A2.46,2.46,0,0,1,216,29.86a2.17,2.17,0,0,1,2.43,2.33V36.9h-1.51V32.59c0-1.07-.45-1.54-1.34-1.54a1.67,1.67,0,0,0-1.66,1.8v4h-1.51Z" transform="translate(-16.93 -17.4)"/><path class="cls-1" d="M218.91,30h1.64l1.74,5.26h0L224,30h1.56L223.1,36.9h-1.7Z" transform="translate(-16.93 -17.4)"/><path class="cls-1" d="M226.37,27.43h1.51v1.43h-1.51Zm0,2.61h1.51V36.9h-1.51Z" transform="translate(-16.93 -17.4)"/><path class="cls-1" d="M229.32,30h1.42v1.33h0a2.21,2.21,0,0,1,2-1.51,3.55,3.55,0,0,1,.57,0v1.46a5.33,5.33,0,0,0-.65-.07c-1,0-1.86.84-1.86,2.35V36.9h-1.51Z" transform="translate(-16.93 -17.4)"/><path class="cls-1" d="M233.3,33.46a3.46,3.46,0,1,1,6.92,0,3.46,3.46,0,1,1-6.92,0Zm5.41,0c0-1.18-.6-2.41-1.95-2.41s-1.95,1.23-1.95,2.41.6,2.43,1.95,2.43S238.71,34.66,238.71,33.46Z" transform="translate(-16.93 -17.4)"/><path class="cls-1" d="M241.35,30h1.43v1l0,0a2.46,2.46,0,0,1,2.13-1.22,2.17,2.17,0,0,1,2.43,2.33V36.9h-1.51V32.59c0-1.07-.45-1.54-1.34-1.54a1.67,1.67,0,0,0-1.66,1.8v4h-1.51Z" transform="translate(-16.93 -17.4)"/><path class="cls-1" d="M248.82,30h1.43v1h0a2.29,2.29,0,0,1,2.11-1.14A1.94,1.94,0,0,1,254.33,31a2.47,2.47,0,0,1,2.15-1.14,2,2,0,0,1,2.29,2.31V36.9h-1.51v-4c0-1.09-.07-1.84-1.25-1.84-1,0-1.46.68-1.46,1.83v4H253v-4.4c0-.94-.29-1.45-1.21-1.45a1.59,1.59,0,0,0-1.5,1.78V36.9h-1.51Z" transform="translate(-16.93 -17.4)"/><path class="cls-1" d="M261.33,33.86a1.82,1.82,0,0,0,1.84,2,1.59,1.59,0,0,0,1.67-1.14h1.43a3,3,0,0,1-3.1,2.33c-2.15,0-3.36-1.5-3.36-3.61a3.32,3.32,0,1,1,6.55.38Zm3.53-1a1.76,1.76,0,1,0-3.53,0Z" transform="translate(-16.93 -17.4)"/><path class="cls-1" d="M267.39,30h1.43v1l0,0A2.46,2.46,0,0,1,271,29.86a2.17,2.17,0,0,1,2.43,2.33V36.9H271.9V32.59c0-1.07-.45-1.54-1.34-1.54a1.67,1.67,0,0,0-1.66,1.8v4h-1.51Z" transform="translate(-16.93 -17.4)"/><path class="cls-1" d="M274,30h1.14V28h1.51V30h1.37v1.13H276.7v3.66c0,.62.05.94.73.94a2.57,2.57,0,0,0,.64-.05v1.17c-.33,0-.65.08-1,.08-1.58,0-1.87-.61-1.9-1.75v-4H274Z" transform="translate(-16.93 -17.4)"/><path class="cls-1" d="M284.76,35.37c0,.37.08.52.36.52a2.1,2.1,0,0,0,.37,0v1a3.82,3.82,0,0,1-1,.17c-.61,0-1-.21-1.17-.83a3.52,3.52,0,0,1-2.37.83,2.08,2.08,0,0,1-2.35-2c0-1.71,1.37-2,2.64-2.14,1.09-.2,2.05-.08,2.05-1s-.81-.93-1.42-.93c-.85,0-1.45.34-1.51,1.09H278.9c.11-1.76,1.6-2.28,3.12-2.28,1.34,0,2.75.54,2.75,2Zm-1.51-1.91a5.4,5.4,0,0,1-1.86.41c-.65.11-1.23.34-1.23,1.14s.86.88,1.39.88,1.7-.34,1.7-1.3Z" transform="translate(-16.93 -17.4)"/><path class="cls-1" d="M286.29,27.43h1.51V36.9h-1.51Z" transform="translate(-16.93 -17.4)"/><path class="cls-1" d="M293,27.43h1.66V31.2H299V27.43h1.66V36.9H299V32.63H294.7V36.9H293Z" transform="translate(-16.93 -17.4)"/><path class="cls-1" d="M303.35,33.86a1.82,1.82,0,0,0,1.84,2,1.59,1.59,0,0,0,1.67-1.14h1.43a3,3,0,0,1-3.1,2.33c-2.15,0-3.36-1.5-3.36-3.61a3.32,3.32,0,1,1,6.55.38Zm3.53-1a1.76,1.76,0,1,0-3.53,0Z" transform="translate(-16.93 -17.4)"/><path class="cls-1" d="M315.15,35.37c0,.37.08.52.36.52a2.1,2.1,0,0,0,.37,0v1a3.82,3.82,0,0,1-1,.17c-.61,0-1-.21-1.17-.83a3.52,3.52,0,0,1-2.37.83,2.08,2.08,0,0,1-2.35-2c0-1.71,1.37-2,2.64-2.14,1.09-.2,2.05-.08,2.05-1s-.81-.93-1.42-.93c-.85,0-1.45.34-1.51,1.09h-1.51c.11-1.76,1.6-2.28,3.12-2.28,1.34,0,2.75.54,2.75,2Zm-1.51-1.91a5.4,5.4,0,0,1-1.86.41c-.65.11-1.23.34-1.23,1.14s.86.88,1.39.88,1.7-.34,1.7-1.3Z" transform="translate(-16.93 -17.4)"/><path class="cls-1" d="M316.69,27.43h1.51V36.9h-1.51Z" transform="translate(-16.93 -17.4)"/><path class="cls-1" d="M319,30h1.14V28h1.51V30H323v1.13h-1.37v3.66c0,.62.05.94.73.94a2.57,2.57,0,0,0,.64-.05v1.17c-.33,0-.65.08-1,.08-1.58,0-1.87-.61-1.9-1.75v-4H319Z" transform="translate(-16.93 -17.4)"/><path class="cls-1" d="M324,27.43h1.51v3.51h0a2.4,2.4,0,0,1,2.05-1.09A2.17,2.17,0,0,1,330,32.19V36.9H328.5V32.59c0-1.07-.45-1.54-1.34-1.54a1.67,1.67,0,0,0-1.66,1.8v4H324Z" transform="translate(-16.93 -17.4)"/><path class="cls-1" d="M336.32,33.74c0,1.46,1.07,2,2.4,2s2-.72,2-1.43a1.12,1.12,0,0,0-.78-1.17c-.66-.25-1.52-.42-2.82-.78A2.4,2.4,0,0,1,335,30c0-1.9,1.75-2.78,3.46-2.78,2,0,3.63,1,3.63,3h-1.66c-.08-1.22-.9-1.67-2-1.67-.77,0-1.74.28-1.74,1.23,0,.66.45,1,1.13,1.22.15,0,2.24.58,2.73.73a2.51,2.51,0,0,1,1.84,2.41c0,2.12-1.88,3-3.77,3-2.16,0-3.91-1-4-3.38Z" transform="translate(-16.93 -17.4)"/><path class="cls-1" d="M348.1,32.34A1.45,1.45,0,0,0,346.54,31c-.78,0-1.88.41-1.88,2.49,0,1.14.5,2.35,1.82,2.35a1.63,1.63,0,0,0,1.63-1.56h1.51a3,3,0,0,1-3.14,2.76,3.22,3.22,0,0,1-3.33-3.54c0-2.07,1.13-3.69,3.38-3.69,1.59,0,2.94.8,3.09,2.48Z" transform="translate(-16.93 -17.4)"/><path class="cls-1" d="M350.75,27.43h1.51v1.43h-1.51Zm0,2.61h1.51V36.9h-1.51Z" transform="translate(-16.93 -17.4)"/><path class="cls-1" d="M354.82,33.86a1.82,1.82,0,0,0,1.84,2,1.59,1.59,0,0,0,1.67-1.14h1.43a3,3,0,0,1-3.1,2.33c-2.15,0-3.35-1.5-3.35-3.61a3.32,3.32,0,1,1,6.55.38Zm3.53-1a1.76,1.76,0,1,0-3.53,0Z" transform="translate(-16.93 -17.4)"/><path class="cls-1" d="M360.88,30h1.43v1l0,0a2.46,2.46,0,0,1,2.13-1.22,2.17,2.17,0,0,1,2.43,2.33V36.9h-1.51V32.59c0-1.07-.45-1.54-1.34-1.54a1.67,1.67,0,0,0-1.66,1.8v4h-1.51Z" transform="translate(-16.93 -17.4)"/><path class="cls-1" d="M372.85,32.34A1.45,1.45,0,0,0,371.29,31c-.78,0-1.88.41-1.88,2.49,0,1.14.5,2.35,1.82,2.35a1.63,1.63,0,0,0,1.63-1.56h1.51a3,3,0,0,1-3.14,2.76,3.22,3.22,0,0,1-3.33-3.54c0-2.07,1.13-3.69,3.38-3.69,1.59,0,2.94.8,3.09,2.48Z" transform="translate(-16.93 -17.4)"/><path class="cls-1" d="M376.64,33.86a1.82,1.82,0,0,0,1.84,2,1.59,1.59,0,0,0,1.67-1.14h1.43a3,3,0,0,1-3.1,2.33c-2.15,0-3.36-1.5-3.36-3.61a3.32,3.32,0,1,1,6.55.38Zm3.53-1a1.76,1.76,0,1,0-3.53,0Z" transform="translate(-16.93 -17.4)"/><path class="cls-1" d="M383.84,34.7c.08.88.74,1.19,1.55,1.19.57,0,1.56-.12,1.53-.9s-1.14-.89-2.24-1.14-2.2-.64-2.2-2,1.62-2,2.86-2c1.41,0,2.68.58,2.86,2.11h-1.58c-.13-.72-.73-.92-1.39-.92-.44,0-1.25.11-1.25.7s1.11.85,2.23,1.1,2.21.65,2.21,2c0,1.63-1.64,2.23-3.06,2.23-1.72,0-3-.77-3-2.39Z" transform="translate(-16.93 -17.4)"/><path class="cls-2" d="M87.77,46.75,85.62,42.2h1.15l1.66,3.68,3.09-3.68h1.25l-3.94,4.54-.71,3.05H87.07Z" transform="translate(-16.93 -17.4)"/><path class="cls-2" d="M94.35,44.17a2.14,2.14,0,0,1,2.45,2.28,3.28,3.28,0,0,1-3.26,3.48,2.26,2.26,0,0,1-2.48-2.3A3.29,3.29,0,0,1,94.35,44.17Zm-.71,5c1.41,0,2.19-1.52,2.19-2.61A1.43,1.43,0,0,0,94.28,45,2.51,2.51,0,0,0,92,47.62,1.44,1.44,0,0,0,93.65,49.13Z" transform="translate(-16.93 -17.4)"/><path class="cls-2" d="M102,49.8H101l.18-.83h0a2.69,2.69,0,0,1-2.1,1c-1.11,0-1.64-.45-1.64-1.41a5.45,5.45,0,0,1,.17-1.07l.72-3.14h1l-.75,3.21a5.66,5.66,0,0,0-.14.85c0,.52.46.77,1,.77a2.26,2.26,0,0,0,2.11-1.79l.68-3h1Z" transform="translate(-16.93 -17.4)"/><path class="cls-2" d="M104.46,44.3h.91l-.29,1.18h0a2.45,2.45,0,0,1,2.14-1.31,1.82,1.82,0,0,1,.34,0l-.23,1h-.29a2,2,0,0,0-1.83.95,3.49,3.49,0,0,0-.49,1.29l-.56,2.44h-1Z" transform="translate(-16.93 -17.4)"/><path class="cls-2" d="M111.82,42.2h5.61l-.18.85h-4.53l-.55,2.42h4.22l-.18.85H112l-.59,2.63H116l-.21.85H110.1Z" transform="translate(-16.93 -17.4)"/><path class="cls-2" d="M118,44.3H119l-.18.83h0a2.68,2.68,0,0,1,2.1-1c1.11,0,1.64.45,1.64,1.41a5.43,5.43,0,0,1-.17,1.07l-.72,3.14h-1l.75-3.21a5.8,5.8,0,0,0,.14-.85c0-.52-.46-.77-1-.77a2.19,2.19,0,0,0-1.46.64,2.22,2.22,0,0,0-.65,1.15l-.68,3h-1Z" transform="translate(-16.93 -17.4)"/><path class="cls-2" d="M125.22,49.8h-1l-.84-5.5h1l.5,4.57h0l2.55-4.57h1Z" transform="translate(-16.93 -17.4)"/><path class="cls-2" d="M129.4,44.3h1l-1.23,5.5h-1Zm1.2-1h-1l.25-1.11h1Z" transform="translate(-16.93 -17.4)"/><path class="cls-2" d="M131.81,44.3h.91l-.29,1.18h0a2.45,2.45,0,0,1,2.14-1.31,1.82,1.82,0,0,1,.34,0l-.23,1h-.29a2,2,0,0,0-1.83.95,3.49,3.49,0,0,0-.49,1.29l-.56,2.44h-1Z" transform="translate(-16.93 -17.4)"/><path class="cls-2" d="M137.77,44.17a2.14,2.14,0,0,1,2.45,2.28A3.28,3.28,0,0,1,137,49.93a2.26,2.26,0,0,1-2.49-2.3A3.29,3.29,0,0,1,137.77,44.17Zm-.71,5c1.41,0,2.19-1.52,2.19-2.61A1.43,1.43,0,0,0,137.7,45a2.51,2.51,0,0,0-2.26,2.65A1.44,1.44,0,0,0,137.07,49.13Z" transform="translate(-16.93 -17.4)"/><path class="cls-2" d="M141.9,44.3h.93l-.18.83h0a2.68,2.68,0,0,1,2.1-1c1.11,0,1.64.45,1.64,1.41a5.43,5.43,0,0,1-.17,1.07l-.72,3.14h-1l.75-3.21a5.8,5.8,0,0,0,.14-.85c0-.52-.46-.77-1-.77a2.19,2.19,0,0,0-1.46.64,2.22,2.22,0,0,0-.65,1.15l-.68,3h-1Z" transform="translate(-16.93 -17.4)"/><path class="cls-2" d="M148.13,44.3h.9l-.22.82,0,0a2.76,2.76,0,0,1,2.05-1,1.33,1.33,0,0,1,1.48,1,2.64,2.64,0,0,1,2-1c.83,0,1.64.34,1.64,1.23a5.09,5.09,0,0,1-.17,1.1l-.74,3.3h-1l.82-3.49a2.83,2.83,0,0,0,.09-.6.81.81,0,0,0-.9-.74,2.14,2.14,0,0,0-1.48.75,2.4,2.4,0,0,0-.55,1.23l-.65,2.84h-1l.71-3.14a6.63,6.63,0,0,0,.18-1c0-.46-.3-.72-.82-.72a2.18,2.18,0,0,0-1.45.7,2,2,0,0,0-.63,1.25l-.66,2.88h-1Z" transform="translate(-16.93 -17.4)"/><path class="cls-2" d="M157.64,47.32a3.44,3.44,0,0,0,0,.48,1.4,1.4,0,0,0,1.53,1.33,1.68,1.68,0,0,0,1.7-1.05h1a2.55,2.55,0,0,1-2.67,1.85,2.18,2.18,0,0,1-2.5-2.21,3.26,3.26,0,0,1,3-3.54,2.18,2.18,0,0,1,2.5,2.44,3.28,3.28,0,0,1-.09.71Zm3.56-.8A1.3,1.3,0,0,0,159.82,45a2.05,2.05,0,0,0-2,1.55Z" transform="translate(-16.93 -17.4)"/><path class="cls-2" d="M163.71,44.3h.93l-.18.83h0a2.68,2.68,0,0,1,2.1-1c1.11,0,1.64.45,1.64,1.41a5.44,5.44,0,0,1-.17,1.07l-.72,3.14h-1l.75-3.21a5.8,5.8,0,0,0,.14-.85c0-.52-.46-.77-1-.77a2.19,2.19,0,0,0-1.46.64,2.22,2.22,0,0,0-.65,1.15l-.68,3h-1Z" transform="translate(-16.93 -17.4)"/><path class="cls-2" d="M171.19,44.3h1.17l-.18.8H171l-.73,3.23c0,.13,0,.23,0,.36,0,.29.29.37.58.37a2,2,0,0,0,.56-.1l-.17.83a3.69,3.69,0,0,1-.68.06c-.72,0-1.32-.19-1.32-.89a2.17,2.17,0,0,1,.06-.46L170,45.1h-1l.18-.8h1l.37-1.63h1Z" transform="translate(-16.93 -17.4)"/><path class="cls-2" d="M172.36,48.62h1.27l-.27,1.18h-1.27Z" transform="translate(-16.93 -17.4)"/><path class="cls-2" d="M179.32,46.75l-2.14-4.54h1.15L180,45.88l3.09-3.68h1.25l-3.94,4.54-.71,3.05h-1.06Z" transform="translate(-16.93 -17.4)"/><path class="cls-2" d="M185.91,44.17a2.14,2.14,0,0,1,2.45,2.28,3.28,3.28,0,0,1-3.26,3.48,2.26,2.26,0,0,1-2.49-2.3A3.29,3.29,0,0,1,185.91,44.17Zm-.71,5c1.41,0,2.19-1.52,2.19-2.61A1.43,1.43,0,0,0,185.84,45a2.51,2.51,0,0,0-2.26,2.65A1.44,1.44,0,0,0,185.2,49.13Z" transform="translate(-16.93 -17.4)"/><path class="cls-2" d="M193.53,49.8h-.93l.18-.83h0a2.68,2.68,0,0,1-2.1,1c-1.11,0-1.64-.45-1.64-1.41a5.46,5.46,0,0,1,.17-1.07l.72-3.14h1l-.75,3.21a5.79,5.79,0,0,0-.14.85c0,.52.46.77,1,.77a2.26,2.26,0,0,0,2.11-1.79l.68-3h1Z" transform="translate(-16.93 -17.4)"/><path class="cls-2" d="M196,44.3h.91l-.29,1.18h0a2.45,2.45,0,0,1,2.14-1.31,1.82,1.82,0,0,1,.34,0l-.23,1h-.29a2,2,0,0,0-1.84.95,3.49,3.49,0,0,0-.49,1.29l-.56,2.44h-1Z" transform="translate(-16.93 -17.4)"/><path class="cls-2" d="M203.36,42.2h1.09l-.74,3.27H208l.73-3.27h1.08l-1.71,7.59H207l.79-3.48h-4.26l-.79,3.48h-1.08Z" transform="translate(-16.93 -17.4)"/><path class="cls-2" d="M210.57,47.32a3.29,3.29,0,0,0,0,.48,1.4,1.4,0,0,0,1.53,1.33,1.68,1.68,0,0,0,1.7-1.05h1a2.55,2.55,0,0,1-2.67,1.85,2.18,2.18,0,0,1-2.5-2.21,3.26,3.26,0,0,1,3-3.54,2.18,2.18,0,0,1,2.5,2.44,3.27,3.27,0,0,1-.09.71Zm3.56-.8A1.3,1.3,0,0,0,212.75,45a2.05,2.05,0,0,0-2,1.55Z" transform="translate(-16.93 -17.4)"/><path class="cls-2" d="M216.12,46a2.31,2.31,0,0,1,2.55-1.79c1.14,0,2.15.29,2.15,1.4a5,5,0,0,1-.18,1l-.38,1.5a4.18,4.18,0,0,0-.16.79c0,.25.13.34.29.34a1.08,1.08,0,0,0,.31-.07l-.15.67a1.6,1.6,0,0,1-.59.13c-.54,0-.82-.3-.76-.78l0,0a2.28,2.28,0,0,1-2,.8c-1,0-1.8-.43-1.8-1.55,0-1.6,1.68-1.7,3-1.81,1-.09,1.48-.14,1.48-.87s-.67-.72-1.19-.72c-.74,0-1.47.28-1.58,1Zm1.31,3.17a1.88,1.88,0,0,0,1.65-.72A3.74,3.74,0,0,0,219.6,47h0a6.16,6.16,0,0,1-1.89.37c-.7.1-1.31.3-1.31,1C216.37,48.87,216.88,49.13,217.43,49.13Z" transform="translate(-16.93 -17.4)"/><path class="cls-2" d="M223,42.2h1l-1.71,7.59h-1Z" transform="translate(-16.93 -17.4)"/><path class="cls-2" d="M226.07,44.3h1.17l-.18.8h-1.17l-.73,3.23c0,.13,0,.23,0,.36,0,.29.29.37.58.37a2,2,0,0,0,.56-.1l-.17.83a3.69,3.69,0,0,1-.68.06c-.72,0-1.32-.19-1.32-.89a2.18,2.18,0,0,1,.06-.46l.78-3.41h-1l.18-.8h1l.37-1.63h1Z" transform="translate(-16.93 -17.4)"/><path class="cls-2" d="M228.69,42.2h1l-.7,2.9,0,0a2.68,2.68,0,0,1,2.1-1c1.11,0,1.64.45,1.64,1.41a5.44,5.44,0,0,1-.17,1.07l-.72,3.14h-1l.75-3.21a5.81,5.81,0,0,0,.14-.85c0-.52-.46-.77-1-.77a2.19,2.19,0,0,0-1.46.64,2.22,2.22,0,0,0-.65,1.15l-.68,3h-1Z" transform="translate(-16.93 -17.4)"/><path class="cls-2" d="M233,48.62h1.27L234,49.8h-1.27Z" transform="translate(-16.93 -17.4)"/></svg>